<svg width="60" height="60" viewBox="0 0 60 60" fill="none" xmlns="http://www.w3.org/2000/svg">
<g clip-path="url(#clip0_4506_2785)">
<rect width="60" height="60" rx="13.28" fill="url(#paint0_linear_4506_2785)"/>
<path fill-rule="evenodd" clip-rule="evenodd" d="M25.0501 33.6598L22.3749 30.9846L10.1214 43.2381C10.1811 43.274 10.2422 43.3079 10.3047 43.3397C10.9464 43.6667 11.7865 43.6667 13.4666 43.6667H46.5333C48.2134 43.6667 49.0535 43.6667 49.6953 43.3397C49.7576 43.3079 49.8187 43.2741 49.8784 43.2382L37.6249 30.9846L34.9497 33.6598C34.1052 34.5043 33.0987 35.0879 32.0302 35.4106C31.3692 35.6103 30.6845 35.7101 29.9998 35.7101C28.2084 35.7101 26.4169 35.0267 25.0501 33.6598ZM50.9047 42.2121C50.9406 42.1523 50.9745 42.0911 51.0063 42.0287C51.3333 41.3869 51.3333 40.5469 51.3333 38.8667V21.1334C51.3333 19.4532 51.3333 18.6131 51.0063 17.9714C50.9653 17.8909 50.9208 17.8125 50.873 17.7365L38.6511 29.9584L50.9047 42.2121ZM49.9301 16.7937L34.0068 32.717C33.1769 33.5469 32.1537 34.0656 31.0821 34.273C30.3492 34.4149 29.5936 34.4112 28.8618 34.2619C27.8105 34.0475 26.8084 33.5325 25.993 32.717L10.0697 16.7937C10.1457 16.7459 10.2241 16.7014 10.3047 16.6604C10.9464 16.3334 11.7865 16.3334 13.4666 16.3334H46.5333C48.2134 16.3334 49.0535 16.3334 49.6953 16.6604C49.7758 16.7014 49.8541 16.7459 49.9301 16.7937ZM9.12687 17.7366C9.07909 17.8126 9.03461 17.8909 8.99361 17.9714C8.66663 18.6131 8.66663 19.4532 8.66663 21.1334V38.8667C8.66663 40.5469 8.66663 41.3869 8.99361 42.0287C9.02541 42.0911 9.0593 42.1522 9.0952 42.2119L21.3487 29.9584L9.12687 17.7366Z" fill="url(#paint1_linear_4506_2785)"/>
</g>
<defs>
<linearGradient id="paint0_linear_4506_2785" x1="30" y1="0" x2="30" y2="60" gradientUnits="userSpaceOnUse">
<stop stop-color="#313131"/>
<stop offset="1" stop-color="#141514"/>
</linearGradient>
<linearGradient id="paint1_linear_4506_2785" x1="30" y1="16.3334" x2="30" y2="43.6667" gradientUnits="userSpaceOnUse">
<stop stop-color="#1A6AE7"/>
<stop offset="1" stop-color="#20C2F4"/>
</linearGradient>
<clipPath id="clip0_4506_2785">
<rect width="60" height="60" rx="13.28" fill="white"/>
</clipPath>
</defs>
</svg>
